<svg xmlns="http://www.w3.org/2000/svg" width="10.479" height="9.841" viewBox="0 0 10.479 9.841">
  <g id="Group_10817" data-name="Group 10817" transform="translate(10.463 9.822) rotate(180)" opacity="0.6">
    <path id="XMLID_423_" d="M29.2,25.645a.69.69,0,0,0-.017.965.707.707,0,0,0,.491.2.728.728,0,0,0,.474-.186l4.4-4.235a.7.7,0,0,0,0-.982l-4.4-4.235a.683.683,0,1,0-.949.982L33.1,21.9Z" transform="translate(-24.291 -16.987)"/>
    <path id="XMLID_423_2" data-name="XMLID_423_" d="M29.2,25.645a.69.69,0,0,0-.017.965.707.707,0,0,0,.491.2.728.728,0,0,0,.474-.186l4.4-4.235a.7.7,0,0,0,0-.982l-4.4-4.235a.683.683,0,1,0-.949.982L33.1,21.9Z" transform="translate(-29 -16.987)"/>
  </g>
</svg>
