<svg id="Group_11894" data-name="Group 11894" xmlns="http://www.w3.org/2000/svg" width="20" height="16" viewBox="0 0 20 16">
  <g id="Group_11893" data-name="Group 11893">
    <path id="Path_10795" data-name="Path 10795" d="M3.232,51.553H4.849a.777.777,0,1,0,0-1.553H3.232A3.175,3.175,0,0,0,0,53.107v9.786A3.175,3.175,0,0,0,3.232,66H4.849a.777.777,0,1,0,0-1.553H3.232a1.588,1.588,0,0,1-1.616-1.553V53.107A1.588,1.588,0,0,1,3.232,51.553Z" transform="translate(0 -50)" fill="#fff"/>
    <path id="Path_10796" data-name="Path 10796" d="M374.424,50h-1.616a.777.777,0,1,0,0,1.553h1.616a1.588,1.588,0,0,1,1.616,1.553v9.786a1.588,1.588,0,0,1-1.616,1.553h-1.616a.777.777,0,1,0,0,1.553h1.616a3.175,3.175,0,0,0,3.232-3.107V53.107A3.175,3.175,0,0,0,374.424,50Z" transform="translate(-357.657 -50)" fill="#fff"/>
    <path id="Path_10797" data-name="Path 10797" d="M188.828,186a2.828,2.828,0,1,0,2.828,2.828A2.832,2.832,0,0,0,188.828,186Zm0,4.041a1.212,1.212,0,1,1,1.212-1.212A1.214,1.214,0,0,1,188.828,190.041Z" transform="translate(-178.828 -180.828)" fill="#fff"/>
  </g>
</svg>
