<svg id="gps" xmlns="http://www.w3.org/2000/svg" width="21.786" height="21.786" viewBox="0 0 21.786 21.786">
  <path id="Path_10789" data-name="Path 10789" d="M139.113,136a3.113,3.113,0,1,0,3.113,3.113A3.117,3.117,0,0,0,139.113,136Zm0,4.447a1.334,1.334,0,1,1,1.334-1.334A1.336,1.336,0,0,1,139.113,140.447Z" transform="translate(-128.22 -128.22)" fill="#fff"/>
  <path id="Path_10790" data-name="Path 10790" d="M20.878,9.985H19.009A8.181,8.181,0,0,0,11.8,2.777V.908a.908.908,0,0,0-1.816,0V2.777A8.181,8.181,0,0,0,2.777,9.985H.908a.908.908,0,1,0,0,1.816H2.777a8.181,8.181,0,0,0,7.209,7.209v1.869a.908.908,0,0,0,1.816,0V19.009A8.181,8.181,0,0,0,19.009,11.8h1.869a.908.908,0,1,0,0-1.816Zm-9.985,7.262a6.354,6.354,0,1,1,6.354-6.354A6.361,6.361,0,0,1,10.893,17.247Z" transform="translate(0)" fill="#fff"/>
</svg>
