<svg id="Group_11554" data-name="Group 11554" xmlns="http://www.w3.org/2000/svg" width="73.874" height="37.534" viewBox="0 0 73.874 37.534">
  <g id="Group_11543" data-name="Group 11543" transform="translate(0 0)">
    <path id="Path_10641" data-name="Path 10641" d="M284.614,237.9a2.229,2.229,0,1,0,2.229,2.23A2.232,2.232,0,0,0,284.614,237.9Z" transform="translate(-252.669 -236.276)" fill="#bc007b"/>
    <path id="Path_10642" data-name="Path 10642" d="M302.62,244.893H300.9v-.72a2.114,2.114,0,0,1,1.722-2.246c1.088-.328,1.779-.852,1.779-1.778a1.675,1.675,0,0,0-1.779-1.651,5.3,5.3,0,0,0-5.277,5.223v1.172h-1.118a1.778,1.778,0,1,0,0,3.555h1.118v9.4a1.777,1.777,0,1,0,3.555,0v-9.4h1.718a1.778,1.778,0,1,0,0-3.555Z" transform="translate(-259.022 -236.593)" fill="#002f6c"/>
    <path id="Path_10643" data-name="Path 10643" d="M285.116,252.005a1.778,1.778,0,0,0-1.778,1.778v11.18a1.777,1.777,0,1,0,3.555,0v-11.18A1.778,1.778,0,0,0,285.116,252.005Z" transform="translate(-253.171 -243.705)" fill="#002f6c"/>
    <path id="Path_10644" data-name="Path 10644" d="M359.286,263.185h-5.61l6.968-8.256a1.778,1.778,0,0,0-1.358-2.925h-9.557a1.778,1.778,0,1,0,0,3.555h5.73l-6.968,8.256a1.777,1.777,0,0,0,1.357,2.925h9.437a1.778,1.778,0,1,0,0-3.555Z" transform="translate(-287.192 -243.705)" fill="#002f6c"/>
    <path id="Path_10645" data-name="Path 10645" d="M323.133,250.909a7.565,7.565,0,0,0-7.729,7.525,7.737,7.737,0,0,0,7.729,7.729H326.8a1.778,1.778,0,1,0,0-3.555h-3.665a3.672,3.672,0,0,1-3.856-2.581H328.1a2.418,2.418,0,0,0,2.62-3.047A7.567,7.567,0,0,0,323.133,250.909Zm-3.906,6.071a4.291,4.291,0,0,1,7.813,0Z" transform="translate(-270.055 -243.128)" fill="#002f6c"/>
    <path id="Path_10646" data-name="Path 10646" d="M245.889,239.756h-1.731a20.849,20.849,0,0,0-10.912,3l-1.872,1.222a20.7,20.7,0,0,1-11.749,4.21v2.7a23.093,23.093,0,0,0,13.128-4.638l1.78-1.164a18.673,18.673,0,0,1,9.548-2.639h1.807a1.352,1.352,0,0,0,0-2.7Z" transform="translate(-219.625 -237.252)" fill="#bc007b"/>
    <path id="Path_10647" data-name="Path 10647" d="M245.829,242.981a18.351,18.351,0,0,1-9.414-2.639l-1.782-1.164c-3.231-2.176-6.853-4.611-15.008-4.7v2.7c7.393.084,10.561,2.212,13.63,4.279l1.87,1.222a20.5,20.5,0,0,0,10.827,3,1.324,1.324,0,0,0,1.215-1.412A1.309,1.309,0,0,0,245.829,242.981Z" transform="translate(-219.625 -234.475)" fill="#00a1ed"/>
    <path id="Path_10648" data-name="Path 10648" d="M245.889,254.967h-1.807a18.655,18.655,0,0,1-9.548-2.638l-1.78-1.163a23.083,23.083,0,0,0-13.128-4.638v2.7a20.688,20.688,0,0,1,11.749,4.209l1.872,1.222a20.824,20.824,0,0,0,10.912,3h1.731a1.351,1.351,0,0,0,0-2.7Z" transform="translate(-219.625 -240.821)" fill="#8abb2a"/>
    <path id="Path_10649" data-name="Path 10649" d="M246.047,245.958c.379.248.75.5,1.12.746l1.3.848a17.138,17.138,0,0,1,2.86-1.394c-.333-.175-.668-.362-1-.566l-1.755-1.147c-.47.236-.943.5-1.414.787Z" transform="translate(-233.537 -239.725)" fill="#002f6c"/>
    <path id="Path_10650" data-name="Path 10650" d="M233.124,253.21a19.1,19.1,0,0,1,3.16,1.527,28.36,28.36,0,0,0,2.572-1.527,28.576,28.576,0,0,0-2.572-1.526A18.984,18.984,0,0,1,233.124,253.21Z" transform="translate(-226.733 -243.536)" fill="#002f6c"/>
  </g>
  <g id="Group_11545" data-name="Group 11545" transform="translate(0 27.316)">
    <g id="Group_11544" data-name="Group 11544" transform="translate(0 0)">
      <path id="Path_10651" data-name="Path 10651" d="M265.564,306.864a2.432,2.432,0,1,0,2.418-2.148A2.289,2.289,0,0,0,265.564,306.864Zm1.123,0a1.282,1.282,0,0,1,1.295-1.266,1.253,1.253,0,0,1,1.269,1.266,1.309,1.309,0,0,1-1.3,1.246A1.27,1.27,0,0,1,266.687,306.864Z" transform="translate(-243.813 -298.774)" fill="#6d6f72"/>
      <path id="Path_10652" data-name="Path 10652" d="M271.949,292.684v1.4h-1.565v.818h1.565v1.151h-1.687v.817h1.687v1.46h1.145v-5.641Z" transform="translate(-246.287 -292.439)" fill="#6d6f72"/>
      <path id="Path_10653" data-name="Path 10653" d="M260.1,293.742v.861h3.073l-.011.085a3.652,3.652,0,0,1-1.231,2.078,8.305,8.305,0,0,1-2.306,1.449c.109.118.58.63.64.7a7.212,7.212,0,0,0,3.1-2.129,5.576,5.576,0,0,0,1.212-3.039Z" transform="translate(-240.687 -292.996)" fill="#6d6f72"/>
      <path id="Path_10654" data-name="Path 10654" d="M288.764,293.044v2.374h-1.319v.828h1.319v5.835h1.078v-9.036Z" transform="translate(-255.334 -292.629)" fill="#6d6f72"/>
      <path id="Path_10655" data-name="Path 10655" d="M279.609,293.832v.9h1.41v.427a4.834,4.834,0,0,1-.341,1.872,5.372,5.372,0,0,1-1.533,1.812l.686.635a5.633,5.633,0,0,0,1.12-1.036,5.031,5.031,0,0,0,.614-.831l.057-.144.078.134a5.612,5.612,0,0,0,.605.807,5.036,5.036,0,0,0,1.05.929l.566-.627a5.49,5.49,0,0,1-1.381-1.613,4.635,4.635,0,0,1-.388-1.96v-.405h1.363v-.9Z" transform="translate(-250.963 -293.044)" fill="#6d6f72"/>
      <path id="Path_10656" data-name="Path 10656" d="M294.481,292.684v9.452H295.6v-9.452Z" transform="translate(-259.038 -292.439)" fill="#6d6f72"/>
      <path id="Path_10657" data-name="Path 10657" d="M313.365,292.684v9.452H314.5v-5.813h1.42v-.86H314.5v-2.779Z" transform="translate(-268.981 -292.439)" fill="#6d6f72"/>
      <path id="Path_10658" data-name="Path 10658" d="M299.9,293.809v.9h1.847l0,.077a4.847,4.847,0,0,1-.421,1.979,5.376,5.376,0,0,1-1.984,2l.674.69a8.1,8.1,0,0,0,1.346-1.013,4.609,4.609,0,0,0,.925-1.1l.062-.109.068.106a6.045,6.045,0,0,0,.984,1.1,7.193,7.193,0,0,0,1.242.884l.636-.7a5.411,5.411,0,0,1-1.849-1.723,4.635,4.635,0,0,1-.515-2.12l0-.079H304.8v-.9Z" transform="translate(-261.596 -293.032)" fill="#6d6f72"/>
      <path id="Path_10659" data-name="Path 10659" d="M319.148,303.522v.86h2.383v3.46h1.2v-3.46h1.784v3.46h1.19v-3.46h2.37v-.86Z" transform="translate(-272.026 -298.146)" fill="#6d6f72"/>
      <path id="Path_10660" data-name="Path 10660" d="M323.113,294.812a2.576,2.576,0,1,0,2.563-2.309A2.45,2.45,0,0,0,323.113,294.812Zm1.169,0a1.411,1.411,0,1,1,1.4,1.4A1.419,1.419,0,0,1,324.282,294.812Z" transform="translate(-274.114 -292.344)" fill="#6d6f72"/>
      <path id="Path_10661" data-name="Path 10661" d="M340.7,293.653v.892h4.7l0,.073c0,.034,0,.073,0,.116a22.008,22.008,0,0,1-.384,3.534l-.014.058h-5.65v.86h3.877v3.46h1.224v-3.46h3.811v-.86h-2.13l.018-.091a33.894,33.894,0,0,0,.456-4.582Z" transform="translate(-282.668 -292.949)" fill="#6d6f72"/>
      <path id="Path_10662" data-name="Path 10662" d="M233.766,292.684v6.865h1.145v-6.865Z" transform="translate(-227.071 -292.439)" fill="#6d6f72"/>
      <path id="Path_10663" data-name="Path 10663" d="M223.016,306.488v2.351a.6.6,0,0,0,.633.565h5.6v-.882h-5.078v-2.034Z" transform="translate(-221.41 -299.707)" fill="#6d6f72"/>
      <path id="Path_10664" data-name="Path 10664" d="M219.625,295.676a2.52,2.52,0,1,0,2.516-2.4A2.465,2.465,0,0,0,219.625,295.676Zm1.168,0a1.355,1.355,0,1,1,1.348,1.48A1.421,1.421,0,0,1,220.793,295.676Z" transform="translate(-219.625 -292.748)" fill="#6d6f72"/>
      <path id="Path_10665" data-name="Path 10665" d="M241.5,292.167v1.139h-1.9v.872h1.925l0,.077a3.317,3.317,0,0,1-.586,1.745,6.219,6.219,0,0,1-1.776,1.544l.688.691a7.41,7.41,0,0,0,1.477-1.1,5.012,5.012,0,0,0,.758-.89l.066-.115.065.115a3.938,3.938,0,0,0,.856.907,5.614,5.614,0,0,0,1.383.856L245,297.3a5.886,5.886,0,0,1-1.691-1.3,2.9,2.9,0,0,1-.62-1.74v-.075h1.944v-.872h-1.922v-1.139Z" transform="translate(-229.913 -292.167)" fill="#6d6f72"/>
      <path id="Path_10666" data-name="Path 10666" d="M251.779,292.684v2.534h-1.843v.861h1.843v3.481h1.146v-6.875Z" transform="translate(-235.584 -292.439)" fill="#6d6f72"/>
      <path id="Path_10667" data-name="Path 10667" d="M243.082,306.488v2.351a.6.6,0,0,0,.633.565h5.6v-.882h-5.077v-2.034Z" transform="translate(-231.976 -299.707)" fill="#6d6f72"/>
      <path id="Path_10668" data-name="Path 10668" d="M371.631,292.684v1.129h-1.444v.838h1.444v1.355h-1.444v.838h1.444v1.427h1.143v-5.587Z" transform="translate(-298.899 -292.439)" fill="#6d6f72"/>
      <path id="Path_10669" data-name="Path 10669" d="M362.486,305.657v.85h5.077v2.459h1.156v-2.744a.6.6,0,0,0-.632-.565Z" transform="translate(-294.845 -299.27)" fill="#6d6f72"/>
      <path id="Path_10670" data-name="Path 10670" d="M359.023,295.557a2.477,2.477,0,1,0,2.472-2.329A2.407,2.407,0,0,0,359.023,295.557Zm1.156,0a1.319,1.319,0,1,1,2.632,0,1.381,1.381,0,0,1-1.316,1.406A1.365,1.365,0,0,1,360.179,295.557Z" transform="translate(-293.021 -292.726)" fill="#6d6f72"/>
    </g>
  </g>
</svg>
