<svg xmlns="http://www.w3.org/2000/svg" width="10.821" height="18.892" viewBox="0 0 10.821 18.892">
  <path id="free-icon-big-bluetooth-logo-81073" d="M71.462,11.941,68.455,9.446l3.006-2.494a2.343,2.343,0,0,0,.876-1.8,2.343,2.343,0,0,0-.875-1.8l-3.8-3.15a.918.918,0,0,0-1.5.707V7.538L63.022,4.924a.918.918,0,0,0-1.175,1.411l3.727,3.1c-1.325,1.1-2.556,2.122-3.731,3.113a.918.918,0,1,0,1.184,1.4c1-.84,2.034-1.707,3.135-2.619v6.638a.918.918,0,0,0,1.5.707l3.8-3.149a2.279,2.279,0,0,0,0-3.591ZM68,2.874l2.292,1.9a.513.513,0,0,1,.211.382.513.513,0,0,1-.211.382L68,7.44Zm2.292,11.244L68,16.019V11.453l2.292,1.9a.45.45,0,0,1,0,.763Z" transform="translate(-61.515 -0.001)" fill="#fff"/>
</svg>
