<svg xmlns="http://www.w3.org/2000/svg" width="18" height="18" viewBox="0 0 18 18">
  <g id="free-icon-reload-165574" transform="translate(-0.262 0)">
    <g id="Group_11895" data-name="Group 11895" transform="translate(0.262 0)">
      <path id="Path_10799" data-name="Path 10799" d="M11.263,17.846a.766.766,0,0,0-.857-.687,8.027,8.027,0,0,1-8.144-5.124A7.211,7.211,0,0,1,5.051,3.656l-.02,1.609a.792.792,0,0,0,.814.764A.814.814,0,0,0,6.659,5.3L6.7,1.478A.733.733,0,0,0,5.924.714L1.855.677a.76.76,0,0,0-.814.727.733.733,0,0,0,.775.764L4.492,2.2A8.67,8.67,0,0,0,.756,12.494,9.5,9.5,0,0,0,9.84,18.65h.692A.75.75,0,0,0,11.263,17.846Z" transform="translate(-0.262 -0.65)" fill="#fff"/>
      <path id="Path_10800" data-name="Path 10800" d="M218.017,16.267l-2.331-.026A8.656,8.656,0,0,0,219.116,6.18,9.495,9.495,0,0,0,209.344.025a.748.748,0,0,0-.732.8.766.766,0,0,0,.857.686,7.977,7.977,0,0,1,8.144,5.12,7.239,7.239,0,0,1-2.836,8.376l.023-1.843a.8.8,0,0,0-1.588-.037l-.039,3.821a.733.733,0,0,0,.775.763l4.072.037a.726.726,0,0,0,.775-.727A.735.735,0,0,0,218.017,16.267Z" transform="translate(-201.606 0)" fill="#fff"/>
    </g>
  </g>
</svg>
