<svg xmlns="http://www.w3.org/2000/svg" width="17.128" height="17.06" viewBox="0 0 17.128 17.06">
  <g id="free-icon-movement-461308" transform="translate(-0.432 0.549)">
    <g id="Group_11896" data-name="Group 11896" transform="translate(1 0.011)">
      <path id="Path_10801" data-name="Path 10801" d="M15.034,9.108a.267.267,0,0,0-.089.367c1.544,2.528,1.95,4.651,1.06,5.541-1.053,1.053-3.707.264-6.545-1.726a25.154,25.154,0,0,0,2.568-2.25C16.168,6.9,18.08,2.328,16.382.63c-1.1-1.1-3.439-.718-6.257,1.02a.267.267,0,1,0,.28.454c2.555-1.576,4.7-2,5.6-1.1,1.437,1.437-.557,5.858-4.353,9.655A24.023,24.023,0,0,1,9,12.958a24.031,24.031,0,0,1-2.651-2.3C2.554,6.865.56,2.444,2,1.007s5.858.557,9.655,4.354c.293.293,1.033,1.047,1.542,1.584H12.2a.267.267,0,0,0,0,.533h1.63l.015,0,.012,0,.013,0,.012,0,.012,0,.012,0,.012-.006.012-.006.011-.007.012-.007.01-.007.011-.009,0,0,.006-.006.01-.01L14,7.387l.009-.01.008-.01.008-.011.006-.01.007-.013,0-.009.006-.015,0-.008.005-.017,0-.007c0-.006,0-.012,0-.018V7.25c0-.006,0-.012,0-.018s0-.006,0-.009,0-.008,0-.012v-1.6a.267.267,0,1,0-.533,0v.919c-.512-.54-1.221-1.261-1.507-1.547C7.89.845,3.318-1.068,1.62.63S1.834,6.9,5.973,11.04a25.151,25.151,0,0,0,2.568,2.25C5.7,15.28,3.05,16.068,2,15.016c-.863-.863-.514-2.881.87-5.265v.661a.267.267,0,1,0,.533,0V8.81s0-.008,0-.012,0-.01,0-.015h0a.265.265,0,0,0-.03-.1h0l-.007-.011a.265.265,0,0,0-.075-.081l0,0,0,0-.013-.008-.007,0-.017-.008-.007,0-.018-.007-.006,0-.02-.005H3.186l-.022,0H1.533a.267.267,0,0,0,0,.533H2.647C.911,11.89.512,14.286,1.62,15.393a2.363,2.363,0,0,0,1.733.618A10.8,10.8,0,0,0,9,13.629a10.8,10.8,0,0,0,5.649,2.382,2.363,2.363,0,0,0,1.733-.618c1.09-1.09.723-3.406-.982-6.2A.267.267,0,0,0,15.034,9.108Z" transform="translate(-1 -0.011)" fill="#fff" stroke="#fff" stroke-width="1"/>
    </g>
  </g>
</svg>
