<svg id="Group_11553" data-name="Group 11553" xmlns="http://www.w3.org/2000/svg" xmlns:xlink="http://www.w3.org/1999/xlink" width="70.591" height="37.534" viewBox="0 0 70.591 37.534">
  <defs>
    <linearGradient id="linear-gradient" x1="0.024" y1="0.426" x2="0.99" y2="0.576" gradientUnits="objectBoundingBox">
      <stop offset="0.152" stop-color="#003773"/>
      <stop offset="0.517" stop-color="#006cbb"/>
      <stop offset="0.865" stop-color="#003773"/>
    </linearGradient>
  </defs>
  <g id="Group_11540" data-name="Group 11540" transform="translate(9.116 0)">
    <path id="Path_10626" data-name="Path 10626" d="M248.287,338.48h.052a5.409,5.409,0,0,1,4.558-2.136c3.549,0,4.61,2.239,4.1,5.479l-1.292,8.155H251.02l1.019-6.431c.2-1.26.756-3.472-1.56-3.472-1.9,0-2.668,1.415-2.928,3.061l-1.083,6.842h-4.682l2.09-13.2h4.682Z" transform="translate(-241.785 -329.09)" fill="#003773"/>
    <path id="Path_10627" data-name="Path 10627" d="M285.677,324.664a3.206,3.206,0,0,1-3.038,2.623,2.191,2.191,0,0,1-2.209-2.623,3.209,3.209,0,0,1,3.04-2.625A2.191,2.191,0,0,1,285.677,324.664Z" transform="translate(-260.818 -322.039)" fill="#cb0017"/>
    <path id="Path_10628" data-name="Path 10628" d="M280.054,350.4h-4.681l2.09-13.2h4.681Z" transform="translate(-258.342 -329.516)" fill="#003773"/>
    <path id="Path_10629" data-name="Path 10629" d="M292.956,356.988h-4.681l3.121-19.781h4.681Z" transform="translate(-264.701 -329.516)" fill="#003773"/>
    <path id="Path_10630" data-name="Path 10630" d="M338.37,350.4h-4.681l2.09-13.2h4.682Z" transform="translate(-287.087 -329.516)" fill="#003773"/>
    <path id="Path_10631" data-name="Path 10631" d="M313.056,336.288a8.228,8.228,0,0,0-5.316,2.085,8.672,8.672,0,0,0-2.819,4.81c-.01.051-.02.1-.029.153s-.013.1-.021.155a3.59,3.59,0,0,1-3.366,2.782,2.452,2.452,0,0,1-2.47-2.935,3.588,3.588,0,0,1,3.4-2.935,2.466,2.466,0,0,1,2,.945,8.6,8.6,0,0,1,2.627-3.66,6.076,6.076,0,0,0-3.973-1.4,8.615,8.615,0,0,0-8.163,7.047,5.887,5.887,0,0,0,5.931,7.048,8.224,8.224,0,0,0,5.316-2.084,8.624,8.624,0,0,0,2.825-4.842c.008-.04.016-.08.023-.121s.011-.078.016-.118a3.591,3.591,0,0,1,3.374-2.816,2.452,2.452,0,0,1,2.47,2.935,3.587,3.587,0,0,1-3.4,2.935,2.47,2.47,0,0,1-1.994-.943,8.039,8.039,0,0,1-2.626,3.66,6.073,6.073,0,0,0,3.967,1.394,8.616,8.616,0,0,0,8.164-7.048A5.887,5.887,0,0,0,313.056,336.288Z" transform="translate(-267.934 -329.063)" fill="url(#linear-gradient)"/>
  </g>
  <g id="Group_11541" data-name="Group 11541" transform="translate(0 29.698)">
    <path id="Path_10632" data-name="Path 10632" d="M226.534,384.359a1.629,1.629,0,0,1-.438-.54,2.987,2.987,0,0,1-1.136.776,3.547,3.547,0,0,1-1.153.262l.139-.883a2.239,2.239,0,0,0,1.337-.538,1.873,1.873,0,0,0,.509-1h-1.553l.133-.837h4.139l-.132.837h-1.564a1.382,1.382,0,0,0,.2.988,1.612,1.612,0,0,0,1.161.54l-.11.694a1.947,1.947,0,0,1,1.236.686,1.711,1.711,0,0,1,.368,1.43,2.359,2.359,0,0,1-.963,1.552,2.762,2.762,0,0,1-1.682.571,2,2,0,0,1-1.483-.571,1.7,1.7,0,0,1-.464-1.552,2.358,2.358,0,0,1,.732-1.365,2.871,2.871,0,0,1,1.34-.72A2.222,2.222,0,0,1,226.534,384.359Zm.092,1.52a1.4,1.4,0,0,0-.548.891.991.991,0,0,0,.267.882,1.093,1.093,0,0,0,.838.36,1.5,1.5,0,0,0,.96-.36,1.382,1.382,0,0,0,.546-.882,1,1,0,0,0-.266-.891,1.141,1.141,0,0,0-.848-.343A1.531,1.531,0,0,0,226.626,385.88Zm3.023-3.138.18-1.138h.949l-.519,3.275h-.949l.205-1.3h-1.128l.132-.836Z" transform="translate(-223.807 -381.098)" fill="#5a5b5e"/>
    <path id="Path_10633" data-name="Path 10633" d="M245.075,384.669a.782.782,0,0,1-.223.483.67.67,0,0,1-.446.13h-1.987l-.318,2.009h2.992l-.135.854h-6.916l.135-.854h2.992l.318-2.009h-2.005a.5.5,0,0,1-.4-.13.631.631,0,0,1-.061-.483l.486-3.071h.949l-.154.973h4.152l.155-.973h.949Zm-5.066-.223h4.152l.167-1.054h-4.152Z" transform="translate(-230.823 -381.096)" fill="#5a5b5e"/>
    <path id="Path_10634" data-name="Path 10634" d="M258.629,384.5l-.047.294h2.992l-.128.809H259.7a1.561,1.561,0,0,1,.344.564,1.454,1.454,0,0,1,.057.72,2.235,2.235,0,0,1-.945,1.487,2.748,2.748,0,0,1-1.68.564,2.052,2.052,0,0,1-1.493-.564,1.589,1.589,0,0,1-.473-1.487,1.868,1.868,0,0,1,.276-.72,2.431,2.431,0,0,1,.512-.564H254.54l.128-.809h2.982l.047-.294h-2.181a.473.473,0,0,1-.395-.14.642.642,0,0,1-.068-.5l.356-2.249h6.419l-.128.8h-5.452l-.041.253h5.453l-.123.777h-5.452l-.042.262H261.5l-.126.794h-2.746Zm-1.622,1.485a1.418,1.418,0,0,0-.552.9,1.013,1.013,0,0,0,.268.89,1.164,1.164,0,0,0,.877.36,1.56,1.56,0,0,0,.975-.36,1.4,1.4,0,0,0,.558-.89,1.011,1.011,0,0,0-.275-.9,1.157,1.157,0,0,0-.862-.352A1.585,1.585,0,0,0,257.007,385.986Z" transform="translate(-238.956 -381.104)" fill="#5a5b5e"/>
    <path id="Path_10635" data-name="Path 10635" d="M273.746,381.6a3.645,3.645,0,0,0,.063,1.823,1.423,1.423,0,0,0,1.243.875l-.144.907a2.511,2.511,0,0,1-1.187-.351,1.981,1.981,0,0,1-.817-1.022,3.234,3.234,0,0,1-1.207,1.03,3.133,3.133,0,0,1-1.248.343l.143-.9a2.107,2.107,0,0,0,1.513-.883,4.438,4.438,0,0,0,.624-1.823Zm-2.931,4.489h.949l-.243,1.536h5.216l-.133.837h-5.6a.5.5,0,0,1-.4-.138.585.585,0,0,1-.07-.471Zm5.864-4.489h.949l-.739,4.668h-.949Z" transform="translate(-246.799 -381.098)" fill="#5a5b5e"/>
    <path id="Path_10636" data-name="Path 10636" d="M289.429,381.6a3.656,3.656,0,0,0,.063,1.823,1.424,1.424,0,0,0,1.243.875l-.144.907a2.513,2.513,0,0,1-1.187-.351,1.984,1.984,0,0,1-.817-1.022,3.224,3.224,0,0,1-1.207,1.03,3.128,3.128,0,0,1-1.248.343l.142-.9a2.105,2.105,0,0,0,1.513-.883,4.416,4.416,0,0,0,.624-1.823Zm-2.931,4.489h.95l-.244,1.536h5.216l-.133.837h-5.6a.5.5,0,0,1-.4-.138.583.583,0,0,1-.071-.471Zm6.443-2.163-.37,2.346h-.95l.74-4.671h.95l-.234,1.472h.964l-.135.854Z" transform="translate(-254.529 -381.098)" fill="#5a5b5e"/>
    <path id="Path_10637" data-name="Path 10637" d="M302.345,385.2h.931l-.1.662h4.236l.1-.662h.95l-.376,2.374a.723.723,0,0,1-.231.475.631.631,0,0,1-.439.139h-4.973a.5.5,0,0,1-.4-.139.59.59,0,0,1-.072-.475Zm2.717-.916a2.4,2.4,0,0,1-1.275.373,1.78,1.78,0,0,1-1.3-.5,1.436,1.436,0,0,1-.41-1.331,2.011,2.011,0,0,1,.832-1.338,2.424,2.424,0,0,1,1.457-.483,1.861,1.861,0,0,1,1.172.377,1.411,1.411,0,0,1,.551,1.064h1.844l.181-1.137h.966l-.516,3.257H307.6l.2-1.283h-1.853A2.086,2.086,0,0,1,305.062,384.284Zm2.222,2.366h-4.237l-.112.7h4.237Zm-3.806-4.511a1.045,1.045,0,0,0-.435.686.76.76,0,0,0,.217.693.9.9,0,0,0,.668.269,1.232,1.232,0,0,0,.762-.269,1.058,1.058,0,0,0,.445-.693.736.736,0,0,0-.227-.686.938.938,0,0,0-.678-.26A1.248,1.248,0,0,0,303.479,382.138Z" transform="translate(-262.328 -380.805)" fill="#5a5b5e"/>
    <path id="Path_10638" data-name="Path 10638" d="M317.934,386.092h.95l-.244,1.536h5.215l-.131.837h-5.6a.5.5,0,0,1-.4-.138.583.583,0,0,1-.07-.471Zm4.424-3.652h-1.586a2.091,2.091,0,0,0,.128,1.308,1.449,1.449,0,0,0,1.176.637l-.147.923a2.378,2.378,0,0,1-1.022-.262,1.754,1.754,0,0,1-.907-.875,2.909,2.909,0,0,1-1.208.867,3.027,3.027,0,0,1-1.1.269l.147-.923a2.06,2.06,0,0,0,1.377-.637,2.712,2.712,0,0,0,.534-1.308H318.2l.133-.837h4.16Zm1.439-.837h.95l-.74,4.668h-.949Z" transform="translate(-270.06 -381.098)" fill="#5a5b5e"/>
    <path id="Path_10639" data-name="Path 10639" d="M333.051,384.761l.132-.837h1.823a1.134,1.134,0,0,1-.208-.445,1.326,1.326,0,0,1-.016-.517,1.566,1.566,0,0,1,.169-.5,2.167,2.167,0,0,1,.322-.428h-1.538l.123-.77h2.684l.1-.655h1.034l-.1.655h2.708l-.121.77h-1.619a1.18,1.18,0,0,1,.213.411,1.247,1.247,0,0,1,.024.518,1.346,1.346,0,0,1-.206.526,1.736,1.736,0,0,1-.38.436h1.9l-.132.837h-1.724a1.587,1.587,0,0,1,.4.634,1.737,1.737,0,0,1,.059.837,2.408,2.408,0,0,1-1.014,1.6,2.9,2.9,0,0,1-1.762.594,2.261,2.261,0,0,1-1.624-.594,1.709,1.709,0,0,1-.515-1.6,2.061,2.061,0,0,1,.321-.821,2.762,2.762,0,0,1,.623-.65Zm2.343.442a1.558,1.558,0,0,0-.614.989,1.1,1.1,0,0,0,.3.981,1.26,1.26,0,0,0,.957.4,1.679,1.679,0,0,0,1.076-.4,1.534,1.534,0,0,0,.612-.981,1.119,1.119,0,0,0-.3-.989,1.248,1.248,0,0,0-.95-.392A1.73,1.73,0,0,0,335.394,385.2Zm.753-2.888a1,1,0,0,0-.4.654.741.741,0,0,0,.191.655.912.912,0,0,0,.7.277,1.211,1.211,0,0,0,.775-.277,1.049,1.049,0,0,0,.4-.655.721.721,0,0,0-.192-.654.935.935,0,0,0-.689-.254A1.274,1.274,0,0,0,336.147,382.314Z" transform="translate(-277.657 -380.608)" fill="#5a5b5e"/>
    <path id="Path_10640" data-name="Path 10640" d="M351.074,384.708h-2.25l.133-.837h.957a1.324,1.324,0,0,1-.354-.507,1.379,1.379,0,0,1-.048-.672,1.9,1.9,0,0,1,.824-1.285,2.454,2.454,0,0,1,1.46-.465,1.751,1.751,0,0,1,1.257.465,1.377,1.377,0,0,1,.408,1.285,1.641,1.641,0,0,1-.269.672,2.149,2.149,0,0,1-.5.507H353.8l-.132.837h-1.642l-.256,1.61h-.95Zm-1.823.812h.931L349.9,387.3h5.232l-.133.837h-5.6A.5.5,0,0,1,349,388a.593.593,0,0,1-.069-.479Zm1.589-3.531a1.126,1.126,0,0,0-.411.7.821.821,0,0,0,.192.686.9.9,0,0,0,.7.3,1.168,1.168,0,0,0,.772-.3,1.122,1.122,0,0,0,.418-.686.808.808,0,0,0-.2-.7.867.867,0,0,0-.678-.294A1.237,1.237,0,0,0,350.84,381.989Zm3.6,3.288.634-4h.949l-.856,5.407h-.949l.093-.589h-1.627l.13-.82Z" transform="translate(-285.432 -380.773)" fill="#5a5b5e"/>
  </g>
</svg>
