<svg xmlns="http://www.w3.org/2000/svg" width="132.699" height="43.174" viewBox="0 0 132.699 43.174">
  <g id="Group_11535" data-name="Group 11535" transform="translate(-219.54 -242.322)">
    <g id="Group_11530" data-name="Group 11530" transform="translate(219.54 254.31)">
      <path id="Path_10602" data-name="Path 10602" d="M229,282.579h-2.513a2.016,2.016,0,0,0-2.119-2.031c-.98,0-1.73.463-1.73,1.461,0,1.033.66,1.55,2.62,2.013,2.707.623,3.919,1.871,3.919,3.848,0,2.317-2.12,3.634-4.543,3.634-2.939,0-4.862-1.3-5.095-3.883h2.513a2.445,2.445,0,0,0,2.546,2.048c1.123,0,2.014-.605,2.014-1.549,0-1.034-.643-1.639-2.458-2.067-2.513-.605-4.1-1.478-4.1-3.74s2.049-3.6,4.4-3.6C227.4,278.713,228.732,280.387,229,282.579Z" transform="translate(-219.54 -278.713)" fill="#121212"/>
      <path id="Path_10603" data-name="Path 10603" d="M255.745,281.395v10.368h-2.46V281.395h-4.167V279.47h10.795v1.925Z" transform="translate(-239.374 -279.221)" fill="#121212"/>
      <path id="Path_10604" data-name="Path 10604" d="M280.378,288.057l-1.229,3.706H276.53l4.435-12.293h3.082l4.348,12.293h-2.672l-1.212-3.706Zm.623-1.942h2.887l-1.426-4.543Z" transform="translate(-257.756 -279.221)" fill="#121212"/>
      <path id="Path_10605" data-name="Path 10605" d="M324.612,291.763h-2.689a10.848,10.848,0,0,1-.606-2.744c-.16-1.318-.658-2.12-1.656-2.192-.339-.017-.642-.017-.962-.017h-1.426v4.953h-2.457V279.47H319.3a13.818,13.818,0,0,1,1.782.089c1.782.214,3.224,1.141,3.224,3.26a2.972,2.972,0,0,1-2.4,2.993,3,3,0,0,1,1.816,2.85A6.293,6.293,0,0,0,324.612,291.763Zm-5.646-6.788c.426,0,.728,0,1-.017a1.684,1.684,0,0,0,1.764-1.764,1.587,1.587,0,0,0-1.621-1.745,7.884,7.884,0,0,0-1.034-.054h-1.8v3.58Z" transform="translate(-283.428 -279.221)" fill="#121212"/>
      <path id="Path_10606" data-name="Path 10606" d="M350.959,281.395v10.368H348.5V281.395h-4.169V279.47h10.795v1.925Z" transform="translate(-303.222 -279.221)" fill="#121212"/>
    </g>
    <g id="Group_11531" data-name="Group 11531" transform="translate(309.881 254.56)">
      <path id="Path_10607" data-name="Path 10607" d="M503.124,283.3a3.592,3.592,0,0,1-3.315,3.741,13.73,13.73,0,0,1-1.78.089h-1.8v4.632h-2.458V279.47h4.258a13.784,13.784,0,0,1,1.78.089A3.533,3.533,0,0,1,503.124,283.3Zm-2.585,0a1.635,1.635,0,0,0-1.46-1.835,8.754,8.754,0,0,0-1.086-.054h-1.764v3.777h1.764a8.859,8.859,0,0,0,1.086-.053A1.636,1.636,0,0,0,500.54,283.3Z" transform="translate(-493.771 -279.47)" fill="#121212"/>
      <path id="Path_10608" data-name="Path 10608" d="M522.378,288.057l-1.229,3.706h-2.62l4.436-12.293h3.083l4.347,12.293h-2.672l-1.215-3.706Zm.624-1.942h2.887l-1.427-4.543Z" transform="translate(-510.374 -279.47)" fill="#121212"/>
      <path id="Path_10609" data-name="Path 10609" d="M566.612,291.763h-2.691a10.822,10.822,0,0,1-.6-2.744c-.162-1.318-.66-2.12-1.657-2.192-.337-.017-.642-.017-.961-.017h-1.426v4.953h-2.459V279.47h4.49a13.805,13.805,0,0,1,1.782.089c1.782.214,3.224,1.141,3.224,3.26a2.973,2.973,0,0,1-2.406,2.993,3,3,0,0,1,1.818,2.85A6.3,6.3,0,0,0,566.612,291.763Zm-5.648-6.788c.428,0,.732,0,1-.017a1.683,1.683,0,0,0,1.763-1.764,1.586,1.586,0,0,0-1.621-1.745,7.842,7.842,0,0,0-1.033-.054h-1.8v3.58Z" transform="translate(-536.045 -279.47)" fill="#121212"/>
      <path id="Path_10610" data-name="Path 10610" d="M600.344,291.763h-3.171l-3.8-4.971-1.014,1.1v3.867h-2.459V279.47h2.459V285.4l5.309-5.932h2.921l-5.433,5.879Z" transform="translate(-558.235 -279.47)" fill="#121212"/>
    </g>
    <g id="Group_11533" data-name="Group 11533" transform="translate(262.764 279.671)">
      <g id="Group_11532" data-name="Group 11532" transform="translate(0 0)">
        <path id="Path_10611" data-name="Path 10611" d="M350.747,361.638v-5.6h.811v5.6Z" transform="translate(-350.747 -355.926)" fill="#121212"/>
        <path id="Path_10612" data-name="Path 10612" d="M368.492,361.638l-2.257-4.616c.022.641.03,1.363.03,1.939v2.677h-.811v-5.6H366.6l2.279,4.649c-.015-.633-.022-1.379-.022-1.955V356.04h.8l.007,5.6Z" transform="translate(-360.609 -355.926)" fill="#121212"/>
        <path id="Path_10613" data-name="Path 10613" d="M393.986,357.61l.008.081h-.8l-.015-.081a1.3,1.3,0,0,0-1.327-1.233c-.944,0-1.541.892-1.541,2.215,0,1.387.6,2.247,1.5,2.247a1.314,1.314,0,0,0,1.327-1.25l.014-.081h.8l-.007.081a2.031,2.031,0,0,1-2.175,1.931c-1.453,0-2.345-1.185-2.345-2.888,0-1.76,1-2.937,2.434-2.937A1.968,1.968,0,0,1,393.986,357.61Z" transform="translate(-376.686 -355.695)" fill="#121212"/>
        <path id="Path_10614" data-name="Path 10614" d="M419.04,361.638h-.8v-2.385h-2.611v2.385h-.811v-5.6h.811v2.491h2.611V356.04h.8Z" transform="translate(-393.708 -355.926)" fill="#121212"/>
        <path id="Path_10615" data-name="Path 10615" d="M443.4,361.638h-3.518v-5.6h3.444v.706H440.7v1.736h2.426v.706H440.7v1.736H443.4Z" transform="translate(-410.521 -355.926)" fill="#121212"/>
        <path id="Path_10616" data-name="Path 10616" d="M465.7,358.608c0,1.728-.892,2.913-2.448,2.913s-2.456-1.185-2.456-2.913.892-2.913,2.456-2.913S465.7,356.871,465.7,358.608Zm-.87,0c0-1.4-.59-2.231-1.578-2.231s-1.586.835-1.586,2.231.59,2.231,1.586,2.231S464.828,360,464.828,358.608Z" transform="translate(-424.541 -355.695)" fill="#121212"/>
        <path id="Path_10617" data-name="Path 10617" d="M490.157,361.638l-2.257-4.616c.022.641.029,1.363.029,1.939v2.677h-.811v-5.6h1.143l2.279,4.649c-.015-.633-.022-1.379-.022-1.955V356.04h.8l.007,5.6Z" transform="translate(-442.194 -355.926)" fill="#121212"/>
      </g>
    </g>
    <g id="Group_11534" data-name="Group 11534" transform="translate(270.527 242.322)">
      <path id="Path_10618" data-name="Path 10618" d="M376.072,285.4l-1.76,1.76,1.76,1.76L388.052,300.9l1.76,1.759v-3.518l-11.981-11.98,4.542-4.542V279.1Z" transform="translate(-374.311 -266.984)" fill="#482381"/>
      <path id="Path_10619" data-name="Path 10619" d="M405.5,275.606v7.011a2.133,2.133,0,0,1-4.253,0V271.606l-2.469,2.468h0v5.136l0,.031v3.376l0,.07a4.2,4.2,0,0,0,2.488,3.68,4.858,4.858,0,0,0,2.1.474h0a4.859,4.859,0,0,0,2.1-.474,4.2,4.2,0,0,0,2.488-3.68l0-9.551Z" transform="translate(-390.718 -261.959)" fill="#c31a1b"/>
      <path id="Path_10620" data-name="Path 10620" d="M429.083,242.322H406.5l2.491,2.49h20.086l2.488-2.488Z" transform="translate(-395.898 -242.322)" fill="#ffc100"/>
      <path id="Path_10621" data-name="Path 10621" d="M452.971,293.212l-1.758,1.759-5.665,5.665v3.519l7.424-7.424h0v-3.518Z" transform="translate(-422.08 -276.447)" fill="#3aa6d6"/>
      <path id="Path_10622" data-name="Path 10622" d="M472.861,242.322l-2.488,2.488h0v16.572l-.535-.535-.5-.5-1.257-1.256v3.518h0l2.3,2.295,2.487,2.487V242.322Z" transform="translate(-437.192 -242.322)" fill="#0051a0"/>
      <path id="Path_10623" data-name="Path 10623" d="M434.1,279.295a4.447,4.447,0,0,0-2.509-2.509,5.027,5.027,0,0,0-1.91-.376h-4.624l0,17.229-2.442,2.443-1.256,1.256v3.518l1.256-1.256.5-.5,3-3,1.425-1.425v-9.764h2.136a4.88,4.88,0,0,0,3.3-1.232,4.422,4.422,0,0,0,.875-1.108,3.843,3.843,0,0,0,.248-3.271Zm-2.26,1.373a2.069,2.069,0,0,1-2.159,1.959H427.55v-3.921h2.135a2.422,2.422,0,0,1,.338.026,2.044,2.044,0,0,1,1.814,1.814C431.84,280.588,431.844,280.627,431.844,280.668Z" transform="translate(-405.863 -265.18)" fill="#83b92b"/>
      <path id="Path_10624" data-name="Path 10624" d="M416.52,250.415l-.535-.535h-3.52l2.3,2.3-3.081,3.081v3.52l4.841-4.841,1.76-1.76Z" transform="translate(-399.369 -247.39)" fill="#f16211"/>
      <path id="Path_10625" data-name="Path 10625" d="M411.657,266.207v3.52l.007-.007V266.2Z" transform="translate(-399.354 -258.334)" fill="#f16211"/>
    </g>
  </g>
</svg>
