<svg id="atmosphere" xmlns="http://www.w3.org/2000/svg" width="22.055" height="22.055" viewBox="0 0 22.055 22.055">
  <g id="Group_11880" data-name="Group 11880">
    <g id="Group_11879" data-name="Group 11879">
      <path id="Path_10791" data-name="Path 10791" d="M138.723,191.021a3.45,3.45,0,0,1,3.256-3.441l-.721.721a.862.862,0,0,0,1.218,1.218L144.5,187.5a.862.862,0,0,0,0-1.218l-2.025-2.025a.862.862,0,0,0-1.218,1.218l.406.406A5.176,5.176,0,0,0,137,191.021a5.025,5.025,0,0,0,.379,1.922.862.862,0,0,0,1.593-.656A3.265,3.265,0,0,1,138.723,191.021Z" transform="translate(-131.099 -176.074)" fill="#fff"/>
      <path id="Path_10792" data-name="Path 10792" d="M19.9,6.446V5.872A5.873,5.873,0,0,0,8.592,3.651,3.833,3.833,0,0,0,3.015,7.065v.783a3.849,3.849,0,0,0-1.924,6.444,3.744,3.744,0,0,0,2.7,1.13.862.862,0,1,0,0-1.723,2.067,2.067,0,0,1-2.068-2.111A2.132,2.132,0,0,1,3.87,9.477h.007a.862.862,0,0,0,.862-.862V7.065a2.11,2.11,0,0,1,3.693-1.4.862.862,0,0,0,1.5-.438,4.15,4.15,0,0,1,8.249.641v1.06a.862.862,0,0,0,.458.761,3.189,3.189,0,0,1-.508,5.851.862.862,0,1,0,.531,1.639A4.912,4.912,0,0,0,19.9,6.446Z" fill="#fff"/>
      <path id="Path_10793" data-name="Path 10793" d="M196.522,286.06a.861.861,0,0,0-.464,1.126,3.765,3.765,0,0,1,.275,1.435,3.45,3.45,0,0,1-3.446,3.446l-.032,0,.642-.642a.862.862,0,0,0-1.218-1.218l-2.025,2.025a.862.862,0,0,0,0,1.218l2.025,2.025a.862.862,0,1,0,1.218-1.218l-.47-.47a5.175,5.175,0,0,0,5.03-5.167,5.5,5.5,0,0,0-.407-2.1A.861.861,0,0,0,196.522,286.06Z" transform="translate(-181.816 -273.674)" fill="#fff"/>
    </g>
  </g>
</svg>
